<svg width="112" height="34" viewBox="0 0 112 34" fill="none" xmlns="http://www.w3.org/2000/svg">
<path d="M39.449 32.1557C39.7956 32.8544 39.2849 33.6725 38.5019 33.6727H24.4162C25.0806 33.2375 25.759 32.7344 26.4651 32.0194C26.9444 31.5112 27.4518 30.9288 27.8357 29.9276C28.2335 28.958 28.1841 27.5158 27.6961 26.5796C26.1638 23.6651 23.7037 22.6997 21.8737 21.8192C20.9401 21.3986 20.0092 21.0099 19.4562 20.6756C19.4446 20.6688 19.4337 20.6613 19.4228 20.6547C21.695 18.0297 26.443 16.1001 29.779 12.6719L39.449 32.1557ZM21.8755 0.607194C22.25 -0.192475 23.388 -0.205068 23.7806 0.585974L28.9343 10.97C25.5211 13.9731 20.8112 14.6026 16.3121 18.6276C15.8654 19.1537 15.1663 20.1496 15.4182 21.545C15.7207 22.8884 16.4787 23.4693 16.9797 23.9202C18.0462 24.7785 18.9337 25.2377 19.7629 25.7646C20.9765 26.4881 22.0024 27.299 22.5162 27.9988C22.1649 28.2417 21.5587 28.5681 20.9159 28.8442C19.5273 29.4452 17.9204 29.9499 16.2908 30.4144C12.9961 31.3535 9.59079 32.0843 5.97446 33.0884C5.44109 33.2405 4.89958 33.3986 4.33179 33.5851H1.0581C0.272264 33.5851 -0.238725 32.7618 0.11328 32.0625L10.2088 12.0106C10.5933 11.2468 11.6837 11.234 12.0864 11.9883L14.461 16.4393L21.8755 0.607194ZM22.7522 28.3848C22.8026 28.4917 22.8374 28.5946 22.8554 28.6926C22.8064 28.6431 22.7719 28.5203 22.7522 28.3848ZM19.225 20.8936C19.2124 20.989 19.1833 21.0625 19.1672 21.0672C19.1423 21.0826 19.1583 21.0041 19.225 20.8936Z" fill="url(#paint0_linear_531_360)"/>
<path d="M53.2556 7.76766C53.2056 7.26565 52.9907 6.87563 52.6114 6.59763C52.2321 6.31964 51.7172 6.18063 51.067 6.18063C50.625 6.18063 50.2516 6.24288 49.9473 6.36735C49.643 6.48768 49.4095 6.65572 49.2472 6.87146C49.0887 7.08724 49.0094 7.332 49.0094 7.60586C49.001 7.83404 49.0489 8.03321 49.1531 8.20331C49.2616 8.37345 49.4095 8.52074 49.5973 8.64521C49.785 8.76554 50.0016 8.87132 50.2478 8.9626C50.4936 9.04974 50.7563 9.12443 51.0356 9.18665L52.1863 9.4605C52.7449 9.58497 53.2577 9.75094 53.7247 9.95838C54.1917 10.1658 54.596 10.421 54.9377 10.7239C55.2797 11.0268 55.5445 11.3836 55.7319 11.7944C55.9238 12.2051 56.0218 12.6761 56.026 13.2071C56.0218 13.9872 55.8217 14.6635 55.4255 15.2361C55.0338 15.8044 54.4668 16.2463 53.7247 16.5617C52.9868 16.8729 52.0965 17.0284 51.0543 17.0284C50.0206 17.0284 49.12 16.8708 48.3529 16.5555C47.5897 16.2401 46.9938 15.7734 46.5644 15.1551C46.139 14.5328 45.916 13.7631 45.8953 12.8462H48.5153C48.5445 13.2735 48.6674 13.6303 48.8844 13.9166C49.1052 14.1988 49.3993 14.4124 49.766 14.5577C50.1372 14.6987 50.5563 14.7693 51.023 14.7693C51.4815 14.7693 51.8799 14.7029 52.2176 14.5701C52.5593 14.4373 52.8241 14.2527 53.0118 14.0162C53.1992 13.7797 53.2933 13.5079 53.2933 13.2009C53.2933 12.9146 53.2077 12.674 53.0369 12.479C52.8699 12.284 52.6241 12.118 52.2986 11.9811C51.9778 11.8442 51.5837 11.7197 51.117 11.6077L49.7223 11.2591C48.6424 10.9977 47.7901 10.5891 47.1646 10.0331C46.5394 9.47708 46.2288 8.72817 46.2327 7.78634C46.2288 7.01461 46.4352 6.34039 46.8518 5.76365C47.2731 5.18695 47.8503 4.73675 48.5843 4.41312C49.318 4.08949 50.1516 3.92769 51.0857 3.92769C52.0362 3.92769 52.8657 4.08949 53.5747 4.41312C54.2875 4.73675 54.8419 5.18695 55.2381 5.76365C55.634 6.34039 55.8383 7.00837 55.8509 7.76766H53.2556ZM63.9572 12.7777V7.28847H66.6209V16.848H64.0632V15.1116H63.9632C63.7466 15.6717 63.3859 16.1219 62.8816 16.4621C62.3811 16.8023 61.7704 16.9724 61.0491 16.9724C60.407 16.9724 59.8421 16.8272 59.3543 16.5368C58.8665 16.2463 58.485 15.8335 58.21 15.2983C57.9391 14.763 57.8014 14.122 57.7972 13.3752V7.28847H60.4613V12.9022C60.4655 13.4664 60.6176 13.9125 60.9177 14.2403C61.2181 14.568 61.6203 14.7319 62.1247 14.7319C62.4459 14.7319 62.746 14.6593 63.0253 14.5141C63.3046 14.3647 63.5296 14.1448 63.7008 13.8544C63.8758 13.564 63.9611 13.2051 63.9572 12.7777ZM68.7521 16.848V7.28847H71.2911V8.97504H71.4034C71.6035 8.41492 71.937 7.97306 72.404 7.64943C72.8711 7.3258 73.4297 7.16396 74.0802 7.16396C74.7388 7.16396 75.2995 7.32786 75.7623 7.65563C76.2251 7.97926 76.5336 8.41909 76.6879 8.97504H76.7879C76.9837 8.42736 77.338 7.98964 77.8508 7.66187C78.3679 7.32993 78.9786 7.16396 79.6833 7.16396C80.5797 7.16396 81.307 7.4482 81.8656 8.01663C82.4284 8.58089 82.7098 9.38167 82.7098 10.419V16.848H80.0521V10.9417C80.0521 10.4106 79.9105 10.0123 79.627 9.74681C79.3435 9.48126 78.9892 9.34848 78.5637 9.34848C78.0801 9.34848 77.7029 9.50201 77.4321 9.80902C77.1609 10.1119 77.0253 10.5123 77.0253 11.0102V16.848H74.4426V10.8857C74.4426 10.4169 74.3073 10.0434 74.0361 9.76545C73.7695 9.48746 73.417 9.34848 72.9795 9.34848C72.6833 9.34848 72.4167 9.42317 72.179 9.57253C71.9455 9.71775 71.7599 9.92312 71.6225 10.1887C71.4848 10.45 71.4161 10.7571 71.4161 11.1098V16.848H68.7521ZM84.8142 16.848V7.28847H87.3532V8.97504H87.4659C87.666 8.41492 87.9995 7.97306 88.4662 7.64943C88.9332 7.3258 89.4918 7.16396 90.1423 7.16396C90.8009 7.16396 91.3616 7.32786 91.8244 7.65563C92.2872 7.97926 92.5957 8.41909 92.75 8.97504H92.85C93.0462 8.42736 93.4005 7.98964 93.9133 7.66187C94.43 7.32993 95.0411 7.16396 95.7455 7.16396C96.6418 7.16396 97.3695 7.4482 97.9281 8.01663C98.4909 8.58089 98.7723 9.38167 98.7723 10.419V16.848H96.1146V10.9417C96.1146 10.4106 95.9727 10.0123 95.6891 9.74681C95.4056 9.48126 95.0513 9.34848 94.6262 9.34848C94.1426 9.34848 93.7651 9.50201 93.4942 9.80902C93.2234 10.1119 93.0878 10.5123 93.0878 11.0102V16.848H90.5051V10.8857C90.5051 10.4169 90.3695 10.0434 90.0986 9.76545C89.8317 9.48746 89.4795 9.34848 89.0417 9.34848C88.7458 9.34848 88.4789 9.42317 88.2411 9.57253C88.0076 9.71775 87.8224 9.92312 87.6847 10.1887C87.5469 10.45 87.4783 10.7571 87.4783 11.1098V16.848H84.8142ZM100.877 16.848V7.28847H103.541V16.848H100.877ZM102.215 6.05616C101.819 6.05616 101.479 5.92549 101.195 5.66407C100.916 5.39852 100.777 5.08113 100.777 4.71186C100.777 4.34673 100.916 4.03347 101.195 3.77209C101.479 3.50654 101.819 3.37378 102.215 3.37378C102.611 3.37378 102.949 3.50654 103.228 3.77209C103.512 4.03347 103.653 4.34673 103.653 4.71186C103.653 5.08113 103.512 5.39852 103.228 5.66407C102.949 5.92549 102.611 6.05616 102.215 6.05616ZM110.784 7.28847V9.28002H104.999V7.28847H110.784ZM106.313 4.99816H108.977V13.9104C108.977 14.1552 109.014 14.3461 109.089 14.483C109.164 14.6157 109.268 14.7091 109.402 14.763C109.539 14.817 109.698 14.844 109.877 14.844C110.002 14.844 110.127 14.8336 110.252 14.8128C110.377 14.788 110.473 14.7693 110.54 14.7568L110.959 16.7297C110.825 16.7712 110.638 16.8189 110.396 16.8729C110.154 16.9309 109.86 16.9662 109.514 16.9787C108.872 17.0036 108.31 16.9185 107.826 16.7235C107.346 16.5285 106.973 16.2256 106.706 15.8148C106.44 15.4041 106.308 14.8854 106.313 14.2589V4.99816ZM46.6018 33.6727V20.9267H48.5343V26.4657H54.919V20.9267H56.8575V33.6727H54.919V28.115H48.5343V33.6727H46.6018ZM63.6617 33.8656C62.7153 33.8656 61.9 33.6644 61.2164 33.2619C60.537 32.8553 60.0115 32.2848 59.6406 31.5504C59.2736 30.8119 59.0901 29.9468 59.0901 28.9552C59.0901 27.976 59.2736 27.113 59.6406 26.3661C60.0115 25.6193 60.5285 25.0364 61.1914 24.6173C61.8584 24.1982 62.6382 23.9887 63.5303 23.9887C64.0724 23.9887 64.5975 24.0779 65.1061 24.2563C65.6147 24.4347 66.0711 24.7148 66.4758 25.0965C66.8801 25.4783 67.1989 25.9741 67.4324 26.584C67.6659 27.1898 67.7828 27.9262 67.7828 28.7934V29.4531H60.1471V28.059H65.9503C65.9503 27.5694 65.8503 27.1358 65.6502 26.7582C65.4502 26.3765 65.1688 26.0757 64.806 25.8558C64.4475 25.6359 64.0262 25.526 63.5427 25.526C63.0175 25.526 62.559 25.6546 62.167 25.9118C61.7792 26.1649 61.4791 26.4969 61.2664 26.9076C61.0579 27.3142 60.9536 27.7561 60.9536 28.2332V29.3224C60.9536 29.9613 61.0663 30.5049 61.2914 30.953C61.5207 31.4011 61.8398 31.7434 62.2483 31.9799C62.6569 32.2122 63.1341 32.3284 63.6804 32.3284C64.0347 32.3284 64.3577 32.2786 64.6496 32.179C64.9416 32.0753 65.1938 31.9218 65.4062 31.7185C65.6189 31.5152 65.7816 31.2641 65.894 30.9654L67.6638 31.2828C67.5222 31.8014 67.2679 32.2558 66.9009 32.6458C66.5381 33.0317 66.0817 33.3325 65.5315 33.5482C64.9853 33.7598 64.3619 33.8656 63.6617 33.8656ZM72.6527 33.8843C72.0441 33.8843 71.4936 33.7723 71.0016 33.5482C70.5099 33.32 70.12 32.9902 69.8323 32.5587C69.5488 32.1272 69.4072 31.5981 69.4072 30.9716C69.4072 30.4323 69.5114 29.9883 69.7196 29.6398C69.9281 29.2913 70.2095 29.0153 70.5638 28.812C70.9185 28.6087 71.3143 28.4552 71.7521 28.3515C72.1899 28.2477 72.6358 28.1689 73.0905 28.115C73.6656 28.0486 74.1326 27.9947 74.4912 27.9532C74.8497 27.9075 75.1104 27.8349 75.2727 27.7354C75.4354 27.6358 75.5168 27.474 75.5168 27.2499V27.2063C75.5168 26.6628 75.3625 26.2417 75.054 25.9429C74.7497 25.6442 74.2954 25.4948 73.6906 25.4948C73.0613 25.4948 72.565 25.6338 72.2022 25.9118C71.8437 26.1857 71.5957 26.4906 71.458 26.8267L69.7009 26.4284C69.9094 25.8475 70.2137 25.3787 70.6138 25.0218C71.0185 24.6609 71.483 24.3995 72.0085 24.2377C72.5337 24.0717 73.0863 23.9887 73.6656 23.9887C74.0492 23.9887 74.4556 24.0344 74.8853 24.1257C75.3189 24.2128 75.7232 24.3746 76.0983 24.6111C76.4776 24.8476 76.7882 25.1858 77.0302 25.6255C77.2718 26.0612 77.393 26.6276 77.393 27.3246V33.6727H75.5668V32.3657H75.4918C75.371 32.6064 75.1896 32.8429 74.9476 33.0752C74.706 33.3076 74.3954 33.5005 74.0161 33.654C73.6364 33.8076 73.1821 33.8843 72.6527 33.8843ZM73.0591 32.3906C73.5762 32.3906 74.0178 32.289 74.3848 32.0857C74.756 31.8824 75.0375 31.6168 75.2291 31.2891C75.4249 30.9571 75.5231 30.6024 75.5231 30.2248V28.9925C75.4562 29.0589 75.327 29.1212 75.1354 29.1792C74.9476 29.2332 74.7332 29.2809 74.4912 29.3224C74.2492 29.3597 74.014 29.395 73.7847 29.4282C73.5554 29.4572 73.3634 29.4821 73.2092 29.5029C72.8464 29.5485 72.515 29.6253 72.2149 29.7331C71.9187 29.841 71.6813 29.9966 71.5021 30.1999C71.327 30.3991 71.2393 30.6646 71.2393 30.9965C71.2393 31.4571 71.4101 31.8056 71.7521 32.0421C72.0941 32.2745 72.5298 32.3906 73.0591 32.3906ZM81.7532 20.9267V33.6727H79.8834V20.9267H81.7532ZM88.7525 24.1132V25.6069H83.5058V24.1132H88.7525ZM84.9128 21.8229H86.7827V30.8659C86.7827 31.2268 86.8369 31.4986 86.945 31.6812C87.0535 31.8596 87.1933 31.982 87.3641 32.0484C87.5392 32.1106 87.729 32.1417 87.9333 32.1417C88.0833 32.1417 88.2147 32.1313 88.3271 32.1106C88.4398 32.0898 88.5275 32.0732 88.5898 32.0608L88.9276 33.598C88.8191 33.6395 88.6648 33.681 88.4648 33.7225C88.2647 33.7681 88.0147 33.793 87.7142 33.7972C87.2226 33.8055 86.764 33.7183 86.3385 33.5358C85.9134 33.3532 85.5693 33.0711 85.3066 32.6894C85.0442 32.3077 84.9128 31.8284 84.9128 31.2517V21.8229ZM92.8969 27.9967V33.6727H91.027V20.9267H92.8719V25.6691H92.9909C93.216 25.1546 93.5597 24.7459 94.0225 24.443C94.4853 24.1402 95.09 23.9887 95.8363 23.9887C96.495 23.9887 97.0701 24.1235 97.5621 24.3933C98.0584 24.663 98.4419 25.0654 98.7128 25.6007C98.9878 26.1317 99.1256 26.7956 99.1256 27.5922V33.6727H97.2557V27.8163C97.2557 27.1151 97.0743 26.5715 96.7116 26.1857C96.3492 25.7956 95.8445 25.6007 95.1982 25.6007C94.7565 25.6007 94.3603 25.694 94.0102 25.8807C93.664 26.0674 93.391 26.3413 93.191 26.7022C92.9951 27.059 92.8969 27.4906 92.8969 27.9967Z" fill="url(#paint1_linear_531_360)"/>
<defs>
<linearGradient id="paint0_linear_531_360" x1="35.044" y1="-5.43299" x2="3.55515" y2="41.6759" gradientUnits="userSpaceOnUse">
<stop stop-color="#A3E635"/>
<stop offset="0.5" stop-color="#10B981"/>
<stop offset="1" stop-color="#059669"/>
</linearGradient>
<linearGradient id="paint1_linear_531_360" x1="78.4778" y1="4.22941" x2="78.4778" y2="33.6727" gradientUnits="userSpaceOnUse">
<stop stop-color="#10B981"/>
<stop offset="1" stop-color="#065F46"/>
</linearGradient>
</defs>
</svg>
